<?xml version="1.0" encoding="UTF-8"?>
<svg version="1.1" xmlns="http://www.w3.org/2000/svg" width="500" height="500">
<path d="M0 0 C9.39366583 7.17445028 15.37789113 16.4169412 17.28125 28.203125 C18.33136212 37.47911536 16.75255415 45.64049059 14.5625 54.6875 C15.11679688 55.01363281 15.67109375 55.33976562 16.2421875 55.67578125 C16.96664062 56.11277344 17.69109375 56.54976563 18.4375 57 C19.15679687 57.42925781 19.87609375 57.85851562 20.6171875 58.30078125 C23.38190047 60.27161078 24.44432471 62.05230783 25.0625 65.375 C24.34268028 70.14380562 21.79564078 73.19476397 18.5625 76.6875 C15.5625 78.6875 15.5625 78.6875 13.19140625 78.52734375 C10.16045451 77.5590605 8.09939122 76.07310244 5.5 74.25 C2.68189346 72.48865842 2.68189346 72.48865842 -0.4375 71.6875 C-3.92959732 72.68524209 -6.55310449 74.12509357 -9.61328125 76.06640625 C-16.94449329 80.27450168 -26.51671654 79.29136393 -34.5 77.5625 C-40.33996679 75.97865297 -44.68483172 73.3600164 -49.4375 69.6875 C-50.324375 69.089375 -51.21125 68.49125 -52.125 67.875 C-60.70556722 59.75824722 -65.18140601 48.26516185 -65.6875 36.625 C-65.49447232 23.90662059 -61.01208276 12.83167505 -52.44140625 3.5390625 C-37.78734825 -10.00094431 -16.40686961 -10.93791308 0 0 Z M-39.8125 21.5 C-44.04023914 27.7667305 -44.99901032 33.46947177 -44.08984375 40.90625 C-42.72908963 46.70778851 -39.94440576 50.92689349 -35.0625 54.35546875 C-30.16891881 57.01859144 -26.07558714 58.53853202 -20.4375 57.6875 C-13.44389861 55.35629954 -8.37803815 52.09617589 -5.0625 45.5 C-2.43467368 38.84210391 -2.41228162 32.61403747 -5 25.9375 C-7.69755531 20.53282358 -11.65857591 17.29635079 -16.8125 14.3125 C-26.06606784 12.10926956 -33.76054393 13.95337197 -39.8125 21.5 Z " fill="#0594F9" transform="translate(122.4375,200.3125)"/>
<path d="M0 0 C1.26679092 -0.01441132 1.26679092 -0.01441132 2.55917358 -0.02911377 C3.92327866 -0.03548859 3.92327866 -0.03548859 5.31494141 -0.04199219 C6.25326813 -0.04769226 7.19159485 -0.05339233 8.15835571 -0.05926514 C10.14380771 -0.06871113 12.12927536 -0.07524753 14.11474609 -0.07910156 C17.14790254 -0.08880766 20.18038147 -0.11983505 23.21337891 -0.15136719 C25.14306239 -0.15789742 27.07275071 -0.16314781 29.00244141 -0.16699219 C29.90779633 -0.17933899 30.81315125 -0.19168579 31.74594116 -0.20440674 C37.70765565 -0.18337826 41.1973785 0.65646 45.60400391 4.91113281 C47.34396818 8.20790723 47.23557378 10.4816967 46.79150391 14.16113281 C44.17568117 18.68381698 40.9966829 22.11164759 37.10400391 25.53613281 C36.58161133 26.00510986 36.05921875 26.47408691 35.52099609 26.95727539 C33.95009862 28.36499697 32.37145076 29.76358388 30.79150391 31.16113281 C29.87240234 31.98226562 28.95330078 32.80339844 28.00634766 33.64941406 C25.9401557 35.49294191 23.86765689 37.32885197 21.79150391 39.16113281 C22.75975098 39.18300659 22.75975098 39.18300659 23.74755859 39.20532227 C26.67946964 39.27991152 29.61025556 39.37653521 32.54150391 39.47363281 C34.06517578 39.5074707 34.06517578 39.5074707 35.61962891 39.54199219 C37.08916016 39.59516602 37.08916016 39.59516602 38.58837891 39.64941406 C39.48911133 39.67559814 40.38984375 39.70178223 41.31787109 39.72875977 C44.2248895 40.23688547 45.63221146 41.18280206 47.79150391 43.16113281 C49.64411553 47.48389327 49.25760733 52.62965012 47.91650391 57.03613281 C46.79150391 59.16113281 46.79150391 59.16113281 44.79150391 60.16113281 C43.15393564 60.27668705 41.51183555 60.33065861 39.87036133 60.35400391 C38.33317696 60.3780983 38.33317696 60.3780983 36.76493835 60.40267944 C32.07612726 60.44707724 27.38745839 60.4881919 22.69848633 60.51123047 C20.22410684 60.52779671 17.74977534 60.55509514 15.27563477 60.59326172 C11.71166101 60.64797132 8.14880954 60.66989625 4.58447266 60.68457031 C3.47911667 60.70723969 2.37376068 60.72990906 1.23490906 60.75326538 C-6.42510013 60.73215695 -6.42510013 60.73215695 -10.38305664 57.84716797 C-12.67885907 54.4690192 -13.20849609 52.23975033 -13.20849609 48.16113281 C-8.12920838 37.93572466 3.02681028 30.11467204 11.79150391 23.16113281 C12.12150391 22.83113281 12.45150391 22.50113281 12.79150391 22.16113281 C10.92945313 22.13986328 10.92945313 22.13986328 9.02978516 22.11816406 C7.38782148 22.07125081 5.74589553 22.02300349 4.10400391 21.97363281 C2.87907227 21.96493164 2.87907227 21.96493164 1.62939453 21.95605469 C-2.64495189 21.80030927 -4.70571509 21.52421666 -8.25927734 18.95800781 C-10.44031694 15.82850009 -10.83425847 14.36626398 -10.70849609 10.59863281 C-10.69818359 9.66921875 -10.68787109 8.73980469 -10.67724609 7.78222656 C-10.13810632 4.76753668 -9.31969995 3.35698399 -7.20849609 1.16113281 C-4.47300853 0.24930363 -2.81951371 0.02594046 0 0 Z " fill="#0494FA" transform="translate(326.20849609375,216.8388671875)"/>
<path d="M0 0 C0.84129959 -0.00960754 1.68259918 -0.01921509 2.5493927 -0.02911377 C3.90879219 -0.03548859 3.90879219 -0.03548859 5.2956543 -0.04199219 C6.23160934 -0.04769226 7.16756439 -0.05339233 8.13188171 -0.05926514 C10.11313752 -0.06871201 12.09440901 -0.07524788 14.07568359 -0.07910156 C17.09785591 -0.08879656 20.11934502 -0.11981857 23.14135742 -0.15136719 C25.06778568 -0.15789857 26.9942188 -0.16314851 28.9206543 -0.16699219 C30.27094475 -0.18551239 30.27094475 -0.18551239 31.64851379 -0.20440674 C36.77481791 -0.18632336 40.40380849 0.23314189 44.80737305 3.16113281 C47.16253651 6.69387801 47.41750455 8.6142859 47.3034668 12.76660156 C46.34910152 17.37310484 43.1543293 20.05281872 39.80737305 23.16113281 C39.01202148 23.90492188 38.21666992 24.64871094 37.3972168 25.41503906 C34.89616585 27.69961574 32.3618671 29.93648735 29.80737305 32.16113281 C28.36834509 33.41998924 26.92955526 34.67911792 25.4909668 35.93847656 C24.26312131 37.01271714 23.03526328 38.08694339 21.80737305 39.16113281 C22.77562012 39.18300659 22.77562012 39.18300659 23.76342773 39.20532227 C26.69533878 39.27991152 29.6261247 39.37653521 32.55737305 39.47363281 C34.08104492 39.5074707 34.08104492 39.5074707 35.63549805 39.54199219 C37.1050293 39.59516602 37.1050293 39.59516602 38.60424805 39.64941406 C39.50498047 39.67559814 40.40571289 39.70178223 41.33374023 39.72875977 C44.26924624 40.24186489 45.66137504 41.11616198 47.80737305 43.16113281 C48.73088032 45.93165462 48.97066889 47.72802039 48.99487305 50.59863281 C49.00905273 51.36046875 49.02323242 52.12230469 49.0378418 52.90722656 C48.77943147 55.43439201 48.15141405 57.01538314 46.80737305 59.16113281 C44.34026018 60.39468924 42.64604496 60.32141696 39.88623047 60.36987305 C38.86144089 60.38916367 37.83665131 60.40845428 36.7808075 60.42832947 C32.09202494 60.48596128 27.40339745 60.53533978 22.71435547 60.56616211 C20.23992983 60.58776359 17.76558104 60.62189122 15.29150391 60.66870117 C11.7274354 60.73554381 8.16494785 60.76313627 4.6003418 60.78222656 C3.49498581 60.81005722 2.38962982 60.83788788 1.2507782 60.86656189 C-6.19130977 60.84659748 -6.19130977 60.84659748 -9.00643921 58.91946411 C-11.46835998 56.13810119 -12.23753903 53.9290871 -12.94262695 50.28613281 C-12.52744313 44.7953267 -9.01732362 41.78722714 -5.19262695 38.16113281 C-4.72646973 37.71801758 -4.2603125 37.27490234 -3.7800293 36.81835938 C1.59038764 31.74081126 7.10512175 26.86358374 12.80737305 22.16113281 C11.63819336 22.12375 10.46901367 22.08636719 9.2644043 22.04785156 C7.7161963 21.98217001 6.16802062 21.91572343 4.61987305 21.84863281 C3.85094727 21.82607422 3.08202148 21.80351562 2.28979492 21.78027344 C-2.30187548 21.5634993 -5.45233956 21.10252387 -9.19262695 18.16113281 C-11.0348179 14.47675093 -10.5538421 10.19153344 -10.19262695 6.16113281 C-8.88012695 3.09863281 -8.88012695 3.09863281 -7.19262695 1.16113281 C-4.46149591 0.2507558 -2.81413554 0.02599663 0 0 Z " fill="#0594F9" transform="translate(260.192626953125,216.8388671875)"/>
<path d="M0 0 C4.95118929 5.06178287 8.19070718 11.20202286 11.6875 17.3125 C12.83242745 19.3113578 13.98193078 21.30760386 15.13671875 23.30078125 C15.63905029 24.17903564 16.14138184 25.05729004 16.65893555 25.9621582 C17.84120837 28.12948396 17.84120837 28.12948396 20 29 C20.18900879 27.90860718 20.18900879 27.90860718 20.38183594 26.79516602 C21.38633724 22.25309044 23.36268098 18.1732791 25.25 13.9375 C25.82427734 12.59075195 25.82427734 12.59075195 26.41015625 11.21679688 C30.25217264 2.57547239 30.25217264 2.57547239 35 0 C39.40502355 -0.18102836 43.253584 1.56459067 47 3.75 C49.57704572 6.64917643 49.80964886 8.12737756 50 12 C49.19225832 14.8843659 47.94059748 17.51255311 46.65234375 20.2109375 C46.28904465 21.00442596 45.92574554 21.79791443 45.55143738 22.615448 C44.3607916 25.20868549 43.14936325 27.79161901 41.9375 30.375 C40.69250735 33.06956069 39.45260906 35.76642616 38.21307373 38.46350098 C37.37309154 40.29040817 36.53132353 42.11649529 35.68780518 43.94177246 C32.98585289 49.80025755 30.36694467 55.68794248 27.82421875 61.6171875 C27.505634 62.35822723 27.18704926 63.09926697 26.85881042 63.86276245 C25.65208562 66.6738045 24.44727249 69.48548156 23.25900269 72.30438232 C22.45426529 74.21173286 21.63831578 76.11393476 20.8203125 78.015625 C20.36930176 79.08071289 19.91829102 80.14580078 19.45361328 81.24316406 C17.94906674 84.09659697 16.46226046 85.93071876 14 88 C9.48782714 88.65631605 5.52972399 87.25540264 1.5 85.3125 C-1.64392187 82.40437227 -1.82359225 81.24358633 -2 77 C-1.19930928 74.05695023 -0.00198031 71.33895044 1.25 68.5625 C1.56324219 67.83740234 1.87648438 67.11230469 2.19921875 66.36523438 C2.79309384 64.9939004 3.39288893 63.62510094 4.00097656 62.26000977 C4.49549316 61.14130493 4.49549316 61.14130493 5 60 C5.59893066 58.89479004 6.19786133 57.78958008 6.81494141 56.65087891 C8.38314939 53.05895323 8.38314939 53.05895323 6.89111328 49.73364258 C5.86606689 48.08078247 5.86606689 48.08078247 4.8203125 46.39453125 C4.45533661 45.78921066 4.09036072 45.18389008 3.71432495 44.56022644 C2.54197456 42.62828506 1.33501401 40.72102648 0.125 38.8125 C-0.65087611 37.55032393 -1.42433812 36.28666052 -2.1953125 35.02148438 C-5.14770399 30.19309575 -8.11782583 25.37753851 -11.16894531 20.61083984 C-11.81702148 19.56750488 -12.46509766 18.52416992 -13.1328125 17.44921875 C-13.7117627 16.53873779 -14.29071289 15.62825684 -14.88720703 14.69018555 C-16.2820601 11.31811753 -16.0203516 9.46840917 -15 6 C-10.57653599 1.69608907 -6.287242 -1.02648849 0 0 Z " fill="#0594F9" transform="translate(394,216)"/>
<path d="M0 0 C2.41869578 1.1589584 4.12322096 2.12322096 6 4 C6.1341508 6.01282807 6.20361125 8.03002882 6.24609375 10.046875 C6.27896484 11.284375 6.31183594 12.521875 6.34570312 13.796875 C6.40653635 16.41658682 6.46387084 19.0363824 6.51757812 21.65625 C6.56881836 23.52023438 6.56881836 23.52023438 6.62109375 25.421875 C6.6461499 26.56237305 6.67120605 27.70287109 6.69702148 28.87792969 C6.99975756 31.9975018 7.57216631 34.21985957 9 37 C11.94877547 38.80202945 13.67046319 39.01977221 17.125 38.8125 C20.07339838 37.97925698 21.17751385 37.39800809 23 35 C24.38439691 32.23120617 24.16313294 29.91532905 24.2109375 26.8203125 C24.25347656 24.96212891 24.25347656 24.96212891 24.296875 23.06640625 C24.34880069 20.44675513 24.39311846 17.82694174 24.4296875 15.20703125 C24.460625 13.96566406 24.4915625 12.72429687 24.5234375 11.4453125 C24.54325684 10.30594238 24.56307617 9.16657227 24.58349609 7.99267578 C25.03997373 4.71277959 25.67809194 3.32464374 28 1 C33.06280501 -0.68760167 38.04855718 -0.81310118 43 1.25 C45.31675094 3.27715707 45.47877218 4.04416569 46 7 C46.09822956 8.56090441 46.14796544 10.1252722 46.16113281 11.68920898 C46.17074036 12.61374374 46.1803479 13.5382785 46.19024658 14.49082947 C46.19449646 15.48256668 46.19874634 16.47430389 46.203125 17.49609375 C46.20882507 18.5217897 46.21452515 19.54748566 46.22039795 20.60426331 C46.22983643 22.77205375 46.23637735 24.93985846 46.24023438 27.10766602 C46.24995349 30.42164069 46.28099364 33.73499858 46.3125 37.04882812 C46.31902907 39.15624632 46.32427992 41.26366895 46.328125 43.37109375 C46.3404718 44.36080673 46.3528186 45.35051971 46.36553955 46.370224 C46.34761774 51.91013838 46.12479696 55.87520304 42 60 C39.8778002 60.12569503 37.75088655 60.17576773 35.625 60.1875 C33.88089844 60.20876953 33.88089844 60.20876953 32.1015625 60.23046875 C29 60 29 60 26 58 C26 57.01 26 56.02 26 55 C25.21689453 55.54140625 25.21689453 55.54140625 24.41796875 56.09375 C18.23065418 59.99468388 13.25410089 61.09178942 6 60 C-1.67523264 58.11529021 -6.53888214 53.36102924 -11 47 C-15.19985584 39.12345376 -15.18126708 30.35108408 -15.1875 21.625 C-15.19974609 20.73039062 -15.21199219 19.83578125 -15.22460938 18.9140625 C-15.25079065 6.90558651 -15.25079065 6.90558651 -13 2 C-8.85946665 -0.62129614 -4.76299525 -0.57733276 0 0 Z " fill="#0495FA" transform="translate(167,217)"/>
<path d="M0 0 C1.84420743 2.37194331 1.76962742 3.84264884 1.78746033 6.82981873 C1.8001445 7.85776047 1.81282867 8.88570221 1.82589722 9.9447937 C1.82296158 11.05419815 1.82002594 12.1636026 1.81700134 13.30662537 C1.82224319 14.44708817 1.82748505 15.58755096 1.83288574 16.76257324 C1.83931305 19.17593064 1.83795984 21.58931933 1.82945251 24.00267029 C1.8209486 27.69895659 1.84968678 31.3936952 1.88145447 35.08982849 C1.88306665 37.43292699 1.88248863 39.77602822 1.87950134 42.11912537 C1.89635231 43.78019569 1.89635231 43.78019569 1.9135437 45.474823 C1.89947227 47.02146385 1.89947227 47.02146385 1.88511658 48.59934998 C1.88495041 49.50519333 1.88478424 50.41103668 1.88461304 51.34432983 C1.22136124 54.56653375 -0.06417872 55.76577341 -2.61659241 57.77928162 C-5.74549866 58.27537537 -5.74549866 58.27537537 -9.17909241 58.21678162 C-10.8825885 58.21484802 -10.8825885 58.21484802 -12.62049866 58.21287537 C-15.61659241 57.77928162 -15.61659241 57.77928162 -17.45643616 56.56443787 C-20.49110596 51.89492912 -19.77768568 45.74635067 -19.78456116 40.38475037 C-19.78788956 39.47856461 -19.79121796 38.57237885 -19.79464722 37.63873291 C-19.79969964 35.72489426 -19.80205606 33.81104685 -19.80189514 31.89720154 C-19.80407702 28.98730239 -19.822238 26.07778542 -19.84120178 23.16795349 C-19.84413707 21.3027204 -19.84612096 19.43748553 -19.84706116 17.57225037 C-19.85424667 16.71052719 -19.86143219 15.84880402 -19.86883545 14.96096802 C-19.84873883 9.57773872 -19.29836317 4.91305138 -17.61659241 -0.22071838 C-13.04808201 -3.07603738 -4.497369 -3.39604528 0 0 Z " fill="#0198FC" transform="translate(239.61659240722656,219.22071838378906)"/>
<path d="M0 0 C1.13308594 -0.01933594 2.26617187 -0.03867188 3.43359375 -0.05859375 C6.5625 0.4375 6.5625 0.4375 8.94140625 2.08984375 C10.98821871 5.05402276 11.09830716 6.85678383 11.0625 10.4375 C11.0728125 11.46875 11.083125 12.5 11.09375 13.5625 C10.4280195 17.16527683 9.54219932 18.33184581 6.5625 20.4375 C3.6875 20.96875 3.6875 20.96875 0.5625 20.9375 C-0.984375 20.95296875 -0.984375 20.95296875 -2.5625 20.96875 C-6.18172093 20.29998092 -7.34373331 19.45193006 -9.4375 16.4375 C-9.93359375 13.30859375 -9.93359375 13.30859375 -9.875 9.875 C-9.87306641 8.17150391 -9.87306641 8.17150391 -9.87109375 6.43359375 C-9.4375 3.4375 -9.4375 3.4375 -8.3125 1.5625 C-5.53085159 -0.10648905 -3.21892701 0.00365372 0 0 Z " fill="#0494F9" transform="translate(230.4375,189.5625)"/>
<path d="M0 0 C0.85722656 0.07605469 1.71445313 0.15210938 2.59765625 0.23046875 C5.37016717 0.92012506 6.20001588 1.5706985 7.9375 3.8125 C8.32518005 6.12046814 8.32518005 6.12046814 8.34155273 8.86303711 C8.35423691 9.89097885 8.36692108 10.91892059 8.37998962 11.97801208 C8.37705399 13.08741653 8.37411835 14.19682098 8.37109375 15.33984375 C8.3763356 16.48030655 8.38157745 17.62076935 8.38697815 18.79579163 C8.39340546 21.20914902 8.39205224 23.62253771 8.38354492 26.03588867 C8.37504101 29.73217497 8.40377919 33.42691359 8.43554688 37.12304688 C8.43715906 39.46614537 8.43658104 41.80924661 8.43359375 44.15234375 C8.45044472 45.81341408 8.45044472 45.81341408 8.46763611 47.50804138 C8.45356468 49.05468224 8.45356468 49.05468224 8.43920898 50.63256836 C8.43904282 51.53841171 8.43887665 52.44425507 8.43870544 53.37754822 C7.77484468 56.6027106 6.49977155 57.80513364 3.9375 59.8125 C0.703125 60.203125 0.703125 60.203125 -2.8125 60.0625 C-3.98296875 60.02640625 -5.1534375 59.9903125 -6.359375 59.953125 C-7.25140625 59.90671875 -8.1434375 59.8603125 -9.0625 59.8125 C-9.3925 59.1525 -9.7225 58.4925 -10.0625 57.8125 C-6.4325 58.1425 -2.8025 58.4725 0.9375 58.8125 C0.9375 58.1525 0.9375 57.4925 0.9375 56.8125 C2.5875 56.8125 4.2375 56.8125 5.9375 56.8125 C5.820218 49.28267447 5.69538198 41.75300191 5.56518555 34.22338867 C5.52175934 31.65961579 5.48009015 29.09581254 5.44018555 26.53198242 C5.38266853 22.85586372 5.31892137 19.17989901 5.25390625 15.50390625 C5.23719376 14.34975723 5.22048126 13.19560822 5.20326233 12.00648499 C5.18331711 10.94546066 5.16337189 9.88443634 5.14282227 8.79125977 C5.12727798 7.85194107 5.1117337 6.91262238 5.09571838 5.94483948 C5.17204841 3.82943335 5.17204841 3.82943335 3.9375 2.8125 C1.75457226 2.57768307 -0.43453174 2.39886677 -2.625 2.25 C-4.42130859 2.12431641 -4.42130859 2.12431641 -6.25390625 1.99609375 C-7.18074219 1.93550781 -8.10757813 1.87492188 -9.0625 1.8125 C-5.84098291 -0.12340006 -3.71843772 -0.38698673 0 0 Z " fill="#2A93DE" transform="translate(233.0625,217.1875)"/>
<path d="M0 0 C2.31675094 2.02715707 2.47877218 2.79416569 3 5.75 C3.09822956 7.31090441 3.14796544 8.8752722 3.16113281 10.43920898 C3.17074036 11.36374374 3.1803479 12.2882785 3.19024658 13.24082947 C3.19449646 14.23256668 3.19874634 15.22430389 3.203125 16.24609375 C3.20882507 17.2717897 3.21452515 18.29748566 3.22039795 19.35426331 C3.22983643 21.52205375 3.23637735 23.68985846 3.24023438 25.85766602 C3.24995349 29.17164069 3.28099364 32.48499858 3.3125 35.79882812 C3.31902907 37.90624632 3.32427992 40.01366895 3.328125 42.12109375 C3.3404718 43.11080673 3.3528186 44.10051971 3.36553955 45.120224 C3.33704345 53.92881821 3.33704345 53.92881821 0 57.75 C-2.6875 58.5625 -2.6875 58.5625 -5 58.75 C-3.74458443 56.23916886 -2.49936512 55.87874554 0 54.75 C0.02526692 47.36271898 0.0428316 39.97544902 0.05493164 32.58813477 C0.05997363 30.07283105 0.06680703 27.55753028 0.07543945 25.04223633 C0.08751094 21.43570225 0.09322949 17.82920677 0.09765625 14.22265625 C0.10281754 13.09038101 0.10797882 11.95810577 0.11329651 10.79151917 C0.11337204 9.75051559 0.11344757 8.70951202 0.11352539 7.63696289 C0.11685631 6.25463219 0.11685631 6.25463219 0.12025452 4.84437561 C0.2337198 2.76191638 0.2337198 2.76191638 -1 1.75 C-3.18292774 1.51518307 -5.37203174 1.33636677 -7.5625 1.1875 C-9.35880859 1.06181641 -9.35880859 1.06181641 -11.19140625 0.93359375 C-12.11824219 0.87300781 -13.04507813 0.81242188 -14 0.75 C-14 1.74 -14 2.73 -14 3.75 C-14.99 3.75 -15.98 3.75 -17 3.75 C-16.1875 1.8125 -16.1875 1.8125 -15 -0.25 C-9.93719499 -1.93760167 -4.95144282 -2.06310118 0 0 Z " fill="#268ED8" transform="translate(210,218.25)"/>
<path d="M0 0 C2.08218362 -0.10832169 4.16599129 -0.18573541 6.25 -0.25 C7.99023438 -0.31960937 7.99023438 -0.31960937 9.765625 -0.390625 C13 0 13 0 15.390625 1.640625 C17.41766219 4.61230088 17.53576634 6.4233656 17.5 10 C17.5103125 11.03125 17.520625 12.0625 17.53125 13.125 C16.86438193 16.73393309 16.00366266 17.9113604 13 20 C9.984375 20.390625 9.984375 20.390625 6.75 20.25 C5.67234375 20.21390625 4.5946875 20.1778125 3.484375 20.140625 C2.25460938 20.07101563 2.25460938 20.07101563 1 20 C1 19.67 1 19.34 1 19 C4.63 19 8.26 19 12 19 C12 18.34 12 17.68 12 17 C12.99 17 13.98 17 15 17 C15 12.38 15 7.76 15 3 C13.68 3 12.36 3 11 3 C11 2.34 11 1.68 11 1 C7.37 1 3.74 1 0 1 C0 0.67 0 0.34 0 0 Z " fill="#3795DA" transform="translate(224,190)"/>
<path d="M0 0 C0 3.66666667 0 7.33333333 0 11 C0.66 11 1.32 11 2 11 C2.268125 11.804375 2.53625 12.60875 2.8125 13.4375 C3.204375 14.283125 3.59625 15.12875 4 16 C4.99 16.33 5.98 16.66 7 17 C7.33 19.64 7.66 22.28 8 25 C4.83234659 22.2433396 2.84980641 18.76841986 0.75 15.1875 C0.37359375 14.58357422 -0.0028125 13.97964844 -0.390625 13.35742188 C-2.20674224 10.25600107 -3.01257212 8.29719086 -2.859375 4.67578125 C-2 2 -2 2 0 0 Z " fill="#2F90D7" transform="translate(381,220)"/>
<path d="M0 0 C0.99 0.495 0.99 0.495 2 1 C2 3.97 2 6.94 2 10 C2.66 10 3.32 10 4 10 C4 11.32 4 12.64 4 14 C4.66 14 5.32 14 6 14 C6 15.32 6 16.64 6 18 C6.66 18 7.32 18 8 18 C8 17.34 8 16.68 8 16 C8.66 16.33 9.32 16.66 10 17 C10.40729228 19.32156597 10.74438677 21.6568787 11 24 C4.98386554 19.62462948 2.33399968 15.00199903 0 8 C-0.12781786 5.32605036 -0.04391871 2.67904143 0 0 Z " fill="#2293E5" transform="translate(153,248)"/>
<path d="M0 0 C2.31 0.33 4.62 0.66 7 1 C7 1.66 7 2.32 7 3 C10.31143006 3.72413373 13.47844221 4.16354255 16.86328125 4.31640625 C17.74951172 4.35830078 18.63574219 4.40019531 19.54882812 4.44335938 C20.9168457 4.50233398 20.9168457 4.50233398 22.3125 4.5625 C23.24384766 4.60568359 24.17519531 4.64886719 25.13476562 4.69335938 C27.42304454 4.79897225 29.71142372 4.90107752 32 5 C32 5.33 32 5.66 32 6 C22.24851986 8.6003947 10.99869769 7.24143035 2.14453125 2.45703125 C1.43683594 1.97621094 0.72914062 1.49539063 0 1 C0 0.67 0 0.34 0 0 Z " fill="#2B95E0" transform="translate(77,272)"/>
<path d="M0 0 C6.3084922 -0.36395147 6.3084922 -0.36395147 9.375 1.25 C12.13560784 4.22296229 11.97685874 6.56031614 12.1875 10.5625 C12 14 12 14 10 17 C9.67 13.37 9.34 9.74 9 6 C8.01 6 7.02 6 6 6 C5.67 5.01 5.34 4.02 5 3 C2.49552484 1.78130071 2.49552484 1.78130071 0 1 C0 0.67 0 0.34 0 0 Z " fill="#1F9AE5" transform="translate(363,257)"/>
<path d="M0 0 C0.33 0.66 0.66 1.32 1 2 C1.99 1.67 2.98 1.34 4 1 C4.66 1.33 5.32 1.66 6 2 C6.33 1.34 6.66 0.68 7 0 C6.43615875 3.27027927 5.63914404 4.95259229 3 7 C0.80859375 7.14453125 0.80859375 7.14453125 -1.5625 6.8125 C-2.34753906 6.71582031 -3.13257813 6.61914062 -3.94140625 6.51953125 C-6 6 -6 6 -8 4 C-5.69 4.33 -3.38 4.66 -1 5 C-0.67 3.35 -0.34 1.7 0 0 Z " fill="#1A94EC" transform="translate(405,297)"/>
<path d="M0 0 C4.79398344 0.94281674 8.57870649 2.21745105 11.90625 5.9609375 C12.84375 9.0859375 12.84375 9.0859375 12.90625 11.9609375 C12.24625 12.6209375 11.58625 13.2809375 10.90625 13.9609375 C10.79410156 13.33445313 10.68195313 12.70796875 10.56640625 12.0625 C9.93000596 9.42539029 9.27393837 7.31044604 7.90625 4.9609375 C4.00225987 2.88482714 0.15995472 2.80742264 -4.15625 3.3359375 C-4.795625 3.5421875 -5.435 3.7484375 -6.09375 3.9609375 C-4.36761427 1.40925859 -3.208815 -0.05986595 0 0 Z " fill="#2A90D9" transform="translate(431.09375,216.0390625)"/>
<path d="M0 0 C0.99 0.33 1.98 0.66 3 1 C2.37183502 4.94949704 1.1354471 8.19892028 -0.5625 11.8125 C-1.01753906 12.78832031 -1.47257812 13.76414062 -1.94140625 14.76953125 C-2.46541016 15.87361328 -2.46541016 15.87361328 -3 17 C-4.26865682 13.19402954 -3.28937726 11.71644033 -2 8 C-2 6.68 -2 5.36 -2 4 C-1 1.75 -1 1.75 0 0 Z " fill="#1D93E9" transform="translate(430,249)"/>
<path d="M0 0 C0.66 0 1.32 0 2 0 C2 0.66 2 1.32 2 2 C1.34 2 0.68 2 0 2 C-0.144375 3.2375 -0.28875 4.475 -0.4375 5.75 C-0.78688502 8.56504499 -1.20379366 11.2701497 -2 14 C-1.34 14 -0.68 14 0 14 C0 14.99 0 15.98 0 17 C1.32 17.33 2.64 17.66 4 18 C2.68 18.33 1.36 18.66 0 19 C-2.8381946 15.81641663 -3.40993914 13.73928226 -3.375 9.5 C-3.38273437 8.5615625 -3.39046875 7.623125 -3.3984375 6.65625 C-2.94122751 3.60818342 -2.12868071 2.20136736 0 0 Z " fill="#2294E4" transform="translate(319,218)"/>
<path d="M0 0 C3.02487439 2.36318312 3.92788164 3.51320104 4.5 7.375 C3.84129573 12.15060597 2.23560861 15.23877663 -1.6015625 18.26171875 C-3.03279289 19.22830799 -4.51313348 20.12139706 -6 21 C-5.8125 19.1875 -5.8125 19.1875 -5 17 C-2.5 15.375 -2.5 15.375 0 14 C1.17635297 11.64729407 1.13359359 10.179248 1.125 7.5625 C1.12757813 6.78003906 1.13015625 5.99757812 1.1328125 5.19140625 C1.08382548 2.82104653 1.08382548 2.82104653 0 0 Z " fill="#2C97DB" transform="translate(369,220)"/>
<path d="M0 0 C0.6875 1.8125 0.6875 1.8125 1 4 C-0.4375 5.5625 -0.4375 5.5625 -2 7 C-2 7.99 -2 8.98 -2 10 C-2.66 10 -3.32 10 -4 10 C-3.67 12.31 -3.34 14.62 -3 17 C-5.84613268 14.15386732 -5.79864424 11.95999656 -6 8 C-4.51720436 4.73784959 -2.64764046 2.39548423 0 0 Z " fill="#2191E3" transform="translate(319,257)"/>
<path d="M0 0 C0.42410156 0.39832031 0.84820312 0.79664063 1.28515625 1.20703125 C7.29882608 6.63915938 12.84161929 9.16751217 21 10 C21 10.33 21 10.66 21 11 C12.47470954 11.99862405 7.12814826 9.55334185 0 5 C0 3.35 0 1.7 0 0 Z " fill="#2A93E2" transform="translate(81,248)"/>
<path d="M0 0 C0.66 0.33 1.32 0.66 2 1 C1.67 1.33 1.34 1.66 1 2 C3.64 2.33 6.28 2.66 9 3 C8.67 3.66 8.34 4.32 8 5 C6.35 5 4.7 5 3 5 C3.66 6.32 4.32 7.64 5 9 C3.68 9 2.36 9 1 9 C0.87625 8.360625 0.7525 7.72125 0.625 7.0625 C0.315625 6.0415625 0.315625 6.0415625 0 5 C-0.66 4.67 -1.32 4.34 -2 4 C-1.34 2.68 -0.68 1.36 0 0 Z " fill="#1996EF" transform="translate(347,254)"/>
<path d="M0 0 C0.33 0.66 0.66 1.32 1 2 C1.66 2 2.32 2 3 2 C3.66 4.64 4.32 7.28 5 10 C6.32 10.33 7.64 10.66 9 11 C9 12.32 9 13.64 9 15 C9.99 15 10.98 15 12 15 C12 15.99 12 16.98 12 18 C8.42071281 16.55898828 6.92599226 14.85719199 4.875 11.625 C4.37742187 10.85414063 3.87984375 10.08328125 3.3671875 9.2890625 C0 3.65142857 0 3.65142857 0 0 Z " fill="#239AE2" transform="translate(60,250)"/>
<path d="M0 0 C0.3125 2.3125 0.3125 2.3125 0 5 C-2.375 6.875 -2.375 6.875 -5 8 C-5.66 7.67 -6.32 7.34 -7 7 C-5.68 5.68 -4.36 4.36 -3 3 C-8.61 2.67 -14.22 2.34 -20 2 C-20 1.67 -20 1.34 -20 1 C-17.4167588 0.83178895 -14.83342301 0.66537483 -12.25 0.5 C-11.52039063 0.45230469 -10.79078125 0.40460938 -10.0390625 0.35546875 C-6.68189836 0.14183103 -3.36563724 0 0 0 Z " fill="#2796E6" transform="translate(276,236)"/>
<path d="M0 0 C0.66 0.33 1.32 0.66 2 1 C1.01 2.485 1.01 2.485 0 4 C-0.66 4 -1.32 4 -2 4 C-2.2784375 4.8971875 -2.2784375 4.8971875 -2.5625 5.8125 C-4.72273753 9.09981799 -7.35107655 9.64854687 -11 11 C-9.52202738 7.32943063 -7.52384523 5.58914217 -4.375 3.25 C-3.55773437 2.63640625 -2.74046875 2.0228125 -1.8984375 1.390625 C-0.95871094 0.70226562 -0.95871094 0.70226562 0 0 Z " fill="#2295E7" transform="translate(78,198)"/>
<path d="M0 0 C0.639375 0.495 1.27875 0.99 1.9375 1.5 C1.6075 2.16 1.2775 2.82 0.9375 3.5 C0.2775 2.84 -0.3825 2.18 -1.0625 1.5 C-4.18446336 1.03513282 -4.18446336 1.03513282 -7.6875 0.875 C-8.87601563 0.80023438 -10.06453125 0.72546875 -11.2890625 0.6484375 C-12.20429688 0.59945312 -13.11953125 0.55046875 -14.0625 0.5 C-14.0625 1.49 -14.0625 2.48 -14.0625 3.5 C-15.0525 3.5 -16.0425 3.5 -17.0625 3.5 C-16.25 1.5625 -16.25 1.5625 -15.0625 -0.5 C-9.91855871 -2.2146471 -4.90764859 -2.40374625 0 0 Z " fill="#2E8FD6" transform="translate(210.0625,218.5)"/>
<path d="M0 0 C0.66 0.99 1.32 1.98 2 3 C1.67 3.99 1.34 4.98 1 6 C-0.32 6 -1.64 6 -3 6 C-3 8.64 -3 11.28 -3 14 C-3.99 14.33 -4.98 14.66 -6 15 C-6.7230444 8.13107822 -6.7230444 8.13107822 -4.6640625 4.91015625 C-3.16989578 3.19502121 -1.64681923 1.56839927 0 0 Z " fill="#1E93E4" transform="translate(254,256)"/>
<path d="M0 0 C3.125 0.375 3.125 0.375 5.5 2.25 C7.125 4.375 7.125 4.375 7.125 6.375 C5.475 6.375 3.825 6.375 2.125 6.375 C1.795 5.385 1.465 4.395 1.125 3.375 C-1.845 2.88 -1.845 2.88 -4.875 2.375 C-2.875 0.375 -2.875 0.375 0 0 Z " fill="#1C91E7" transform="translate(390.875,215.625)"/>
<path d="M0 0 C2.10388569 -0.05402274 4.20816714 -0.09280256 6.3125 -0.125 C8.07013672 -0.15980469 8.07013672 -0.15980469 9.86328125 -0.1953125 C13 0 13 0 16 2 C16.29296875 4.6015625 16.29296875 4.6015625 16.1875 7.625 C16.16042969 8.62789062 16.13335937 9.63078125 16.10546875 10.6640625 C16.07066406 11.43492187 16.03585938 12.20578125 16 13 C15.67 13 15.34 13 15 13 C15 9.7 15 6.4 15 3 C13.68 3 12.36 3 11 3 C11 2.34 11 1.68 11 1 C7.37 1 3.74 1 0 1 C0 0.67 0 0.34 0 0 Z " fill="#2594E8" transform="translate(224,190)"/>
<path d="M0 0 C2 0 2 0 3.6875 1.5625 C5.56631438 5.0517267 4.95974358 7.22957879 4 11 C2.5625 12.9375 2.5625 12.9375 1 14 C0.34 14 -0.32 14 -1 14 C0 11 1 8 2 5 C1.12085312 2.3430809 1.12085312 2.3430809 0 0 Z " fill="#1F93E5" transform="translate(400,264)"/>
<path d="M0 0 C0.33 0 0.66 0 1 0 C1.1875 2.375 1.1875 2.375 1 5 C-2.63195496 7.42130331 -4.38349348 7.21022785 -8.6875 7.125 C-10.45673828 7.09792969 -10.45673828 7.09792969 -12.26171875 7.0703125 C-13.16535156 7.04710937 -14.06898438 7.02390625 -15 7 C-15.33 6.34 -15.66 5.68 -16 5 C-12.37 5.33 -8.74 5.66 -5 6 C-5 5.34 -5 4.68 -5 4 C-3.35 4 -1.7 4 0 4 C0 2.68 0 1.36 0 0 Z " fill="#1E95E5" transform="translate(239,270)"/>
<path d="M0 0 C0 0.33 0 0.66 0 1 C-0.79664062 1.10957031 -1.59328125 1.21914062 -2.4140625 1.33203125 C-8.1472414 2.18991568 -13.02580893 2.96021657 -18 6 C-18 4.68 -18 3.36 -18 2 C-12.12116651 -0.61281488 -6.29268272 -0.18328202 0 0 Z " fill="#2697E2" transform="translate(103,213)"/>
<path d="M0 0 C0.33 0.66 0.66 1.32 1 2 C1.66 2.33 2.32 2.66 3 3 C0.36 5.31 -2.28 7.62 -5 10 C-6 7 -6 7 -5.0625 4.8125 C-4.711875 4.214375 -4.36125 3.61625 -4 3 C-2.68 3.33 -1.36 3.66 0 4 C0 2.68 0 1.36 0 0 Z " fill="#1D99EB" transform="translate(358,241)"/>
<path d="M0 0 C1.32 0 2.64 0 4 0 C4 0.66 4 1.32 4 2 C4.66 2.33 5.32 2.66 6 3 C5.071875 3.433125 4.14375 3.86625 3.1875 4.3125 C-0.19988648 5.90580063 -0.19988648 5.90580063 -3 9 C-2.01 6.03 -1.02 3.06 0 0 Z " fill="#1594E9" transform="translate(424,220)"/>
<path d="M0 0 C0.33 0 0.66 0 1 0 C1.43702768 4.45768233 1.51445113 6.34650802 -1.3125 9.9375 C-4 12 -4 12 -7 12 C-6.21625 11.13375 -5.4325 10.2675 -4.625 9.375 C-2.16613272 6.44943553 -0.97549896 3.72463238 0 0 Z " fill="#2792E1" transform="translate(118,241)"/>
<path d="M0 0 C0.55429688 0.42152344 1.10859375 0.84304687 1.6796875 1.27734375 C2.40414062 1.82519531 3.12859375 2.37304688 3.875 2.9375 C4.59429687 3.48277344 5.31359375 4.02804687 6.0546875 4.58984375 C7.94357079 6.03964624 7.94357079 6.03964624 10 7 C9.67 7.66 9.34 8.32 9 9 C8.01 8.34 7.02 7.68 6 7 C3.37468476 6.83286431 3.37468476 6.83286431 1 7 C0.67 4.69 0.34 2.38 0 0 Z " fill="#1C93E3" transform="translate(135,253)"/>
<path d="M0 0 C0.79921875 0.01804688 1.5984375 0.03609375 2.421875 0.0546875 C3.02515625 0.07789063 3.6284375 0.10109375 4.25 0.125 C4.25 0.455 4.25 0.785 4.25 1.125 C0.95 1.455 -2.35 1.785 -5.75 2.125 C-5.75 2.785 -5.75 3.445 -5.75 4.125 C-6.41 4.125 -7.07 4.125 -7.75 4.125 C-8.41 5.445 -9.07 6.765 -9.75 8.125 C-9.5 5.25 -9.5 5.25 -8.75 2.125 C-5.82866559 0.14266594 -3.47562309 -0.10222421 0 0 Z " fill="#2E90CF" transform="translate(162.75,216.875)"/>
<path d="M0 0 C2.86477034 1.05041579 3.83913226 1.70124563 5.3125 4.4375 C6 7 6 7 5 10 C4.16121545 8.71186658 3.32913217 7.41936744 2.5 6.125 C2.0359375 5.40570313 1.571875 4.68640625 1.09375 3.9453125 C0 2 0 2 0 0 Z M5 3 C7 4 7 4 7 4 Z " fill="#2192E0" transform="translate(392,250)"/>
<path d="M0 0 C3.3 0 6.6 0 10 0 C10.33 0.99 10.66 1.98 11 3 C5.04296875 3.29296875 5.04296875 3.29296875 3 3 C2.01 2.01 1.02 1.02 0 0 Z " fill="#1296EA" transform="translate(316,274)"/>
<path d="M0 0 C0.33 0 0.66 0 1 0 C1.08167446 1.41569064 1.13949698 2.83276805 1.1875 4.25 C1.22230469 5.03890625 1.25710937 5.8278125 1.29296875 6.640625 C0.93578688 9.51712968 -0.11751718 10.84576769 -2 13 C-1.85851011 11.3954444 -1.71164314 9.79136233 -1.5625 8.1875 C-1.48128906 7.29417969 -1.40007813 6.40085938 -1.31640625 5.48046875 C-1 3 -1 3 0 0 Z " fill="#2494E4" transform="translate(60,219)"/>
<path d="M0 0 C0.99 0.66 1.98 1.32 3 2 C0.69 4.31 -1.62 6.62 -4 9 C-4.66 8.67 -5.32 8.34 -6 8 C-5.525625 7.566875 -5.05125 7.13375 -4.5625 6.6875 C-2.76313043 4.97690387 -2.76313043 4.97690387 -2 2 C-1.34 2 -0.68 2 0 2 C0 1.34 0 0.68 0 0 Z " fill="#2995E1" transform="translate(291,243)"/>
<path d="M0 0 C2.31 0.66 4.62 1.32 7 2 C6.67 3.65 6.34 5.3 6 7 C1.125 2.25 1.125 2.25 0 0 Z " fill="#2190E3" transform="translate(111,218)"/>
<path d="M0 0 C0.99 0 1.98 0 3 0 C3.33 2.64 3.66 5.28 4 8 C1.10067643 5.60490662 0.49831724 3.68754757 0 0 Z " fill="#1E94E7" transform="translate(385,237)"/>
<path d="M0 0 C3.3 0 6.6 0 10 0 C6 3 6 3 3 4 C1.97895449 3.02149805 0.9793879 2.02019573 0 1 C0 0.67 0 0.34 0 0 Z " fill="#0D93F2" transform="translate(159,218)"/>
<path d="M0 0 C0 2.66666667 0 5.33333333 0 8 C-0.99 8 -1.98 8 -3 8 C-2.25 2.25 -2.25 2.25 0 0 Z " fill="#1F94E1" transform="translate(381,220)"/>
<path d="" fill="#FFFFFF" transform="translate(0,0)"/>
<path d="" fill="#FFFFFF" transform="translate(0,0)"/>
<path d="" fill="#FFFFFF" transform="translate(0,0)"/>
<path d="" fill="#FFFFFF" transform="translate(0,0)"/>
<path d="" fill="#FFFFFF" transform="translate(0,0)"/>
<path d="" fill="#FFFFFF" transform="translate(0,0)"/>
<path d="" fill="#FFFFFF" transform="translate(0,0)"/>
<path d="" fill="#FFFFFF" transform="translate(0,0)"/>
<path d="" fill="#FFFFFF" transform="translate(0,0)"/>
<path d="" fill="#FFFFFF" transform="translate(0,0)"/>
<path d="" fill="#FFFFFF" transform="translate(0,0)"/>
<path d="" fill="#FFFFFF" transform="translate(0,0)"/>
<path d="" fill="#FFFFFF" transform="translate(0,0)"/>
<path d="" fill="#FFFFFF" transform="translate(0,0)"/>
<path d="" fill="#FFFFFF" transform="translate(0,0)"/>
<path d="" fill="#FFFFFF" transform="translate(0,0)"/>
<path d="" fill="#FFFFFF" transform="translate(0,0)"/>
<path d="" fill="#FFFFFF" transform="translate(0,0)"/>
<path d="" fill="#FFFFFF" transform="translate(0,0)"/>
<path d="" fill="#FFFFFF" transform="translate(0,0)"/>
<path d="" fill="#FFFFFF" transform="translate(0,0)"/>
<path d="" fill="#FFFFFF" transform="translate(0,0)"/>
<path d="" fill="#FFFFFF" transform="translate(0,0)"/>
<path d="" fill="#FFFFFF" transform="translate(0,0)"/>
<path d="" fill="#FFFFFF" transform="translate(0,0)"/>
<path d="" fill="#FFFFFF" transform="translate(0,0)"/>
<path d="" fill="#FFFFFF" transform="translate(0,0)"/>
<path d="" fill="#FFFFFF" transform="translate(0,0)"/>
<path d="" fill="#FFFFFF" transform="translate(0,0)"/>
<path d="" fill="#FFFFFF" transform="translate(0,0)"/>
<path d="" fill="#FFFFFF" transform="translate(0,0)"/>
<path d="" fill="#FFFFFF" transform="translate(0,0)"/>
<path d="" fill="#FFFFFF" transform="translate(0,0)"/>
<path d="" fill="#FFFFFF" transform="translate(0,0)"/>
<path d="" fill="#FFFFFF" transform="translate(0,0)"/>
<path d="" fill="#FFFFFF" transform="translate(0,0)"/>
<path d="" fill="#FFFFFF" transform="translate(0,0)"/>
<path d="" fill="#FFFFFF" transform="translate(0,0)"/>
<path d="" fill="#FFFFFF" transform="translate(0,0)"/>
<path d="" fill="#FFFFFF" transform="translate(0,0)"/>
<path d="" fill="#FFFFFF" transform="translate(0,0)"/>
<path d="" fill="#FFFFFF" transform="translate(0,0)"/>
<path d="" fill="#FFFFFF" transform="translate(0,0)"/>
<path d="" fill="#FFFFFF" transform="translate(0,0)"/>
<path d="" fill="#FFFFFF" transform="translate(0,0)"/>
<path d="" fill="#FFFFFF" transform="translate(0,0)"/>
<path d="" fill="#FFFFFF" transform="translate(0,0)"/>
<path d="" fill="#FFFFFF" transform="translate(0,0)"/>
<path d="" fill="#FFFFFF" transform="translate(0,0)"/>
<path d="" fill="#FFFFFF" transform="translate(0,0)"/>
<path d="" fill="#FFFFFF" transform="translate(0,0)"/>
<path d="" fill="#FFFFFF" transform="translate(0,0)"/>
<path d="" fill="#FFFFFF" transform="translate(0,0)"/>
<path d="" fill="#FFFFFF" transform="translate(0,0)"/>
<path d="" fill="#FFFFFF" transform="translate(0,0)"/>
<path d="" fill="#FFFFFF" transform="translate(0,0)"/>
<path d="" fill="#FFFFFF" transform="translate(0,0)"/>
<path d="" fill="#FFFFFF" transform="translate(0,0)"/>
<path d="" fill="#FFFFFF" transform="translate(0,0)"/>
<path d="" fill="#FFFFFF" transform="translate(0,0)"/>
<path d="" fill="#FFFFFF" transform="translate(0,0)"/>
<path d="" fill="#FFFFFF" transform="translate(0,0)"/>
<path d="" fill="#FFFFFF" transform="translate(0,0)"/>
<path d="" fill="#FFFFFF" transform="translate(0,0)"/>
<path d="" fill="#FFFFFF" transform="translate(0,0)"/>
<path d="" fill="#FFFFFF" transform="translate(0,0)"/>
<path d="" fill="#FFFFFF" transform="translate(0,0)"/>
<path d="" fill="#FFFFFF" transform="translate(0,0)"/>
<path d="" fill="#FFFFFF" transform="translate(0,0)"/>
<path d="" fill="#FFFFFF" transform="translate(0,0)"/>
<path d="" fill="#FFFFFF" transform="translate(0,0)"/>
<path d="" fill="#FFFFFF" transform="translate(0,0)"/>
<path d="" fill="#FFFFFF" transform="translate(0,0)"/>
<path d="" fill="#FFFFFF" transform="translate(0,0)"/>
<path d="" fill="#FFFFFF" transform="translate(0,0)"/>
</svg>
