<svg width="130" height="164" viewBox="0 0 130 164" fill="none" xmlns="http://www.w3.org/2000/svg">
    <rect width="130" height="164" fill="#646F90" />
    <path d="M67.6029 42.0841C62.0324 41.7239 56.4476 42.5237 51.2076 44.4321C45.9676 46.3404 41.1886 49.3152 37.1778 53.1648C33.1671 57.0145 30.0134 61.6539 27.9198 66.7846C25.8262 71.9153 24.8389 77.4237 25.0214 82.9555C25.6992 103.76 42.8175 120.676 63.7978 121.279C70.6684 121.497 77.479 119.949 83.5674 116.785C83.7459 116.691 83.9467 116.648 84.1483 116.659C84.3499 116.67 84.5447 116.735 84.7118 116.847C85.8735 117.613 87.0846 118.302 88.3372 118.91C92.682 120.991 97.453 122.048 102.278 121.998C102.425 121.999 102.571 121.971 102.707 121.916C102.844 121.861 102.968 121.779 103.072 121.677C103.177 121.574 103.26 121.452 103.317 121.317C103.373 121.182 103.403 121.038 103.403 120.892V107.433C103.405 107.172 103.312 106.92 103.143 106.72C102.974 106.521 102.739 106.388 102.48 106.345C101.192 106.148 99.9348 105.791 98.7374 105.282C98.5895 105.217 98.4575 105.121 98.3509 105.001C98.2443 104.88 98.1655 104.738 98.1202 104.584C98.0748 104.43 98.064 104.268 98.0884 104.11C98.1128 103.951 98.1718 103.8 98.2614 103.666C103.075 96.5418 105.419 88.0574 104.939 79.4954C103.86 59.5504 87.7098 43.35 67.6029 42.0841ZM40.7778 81.6552C40.7778 76.9062 42.1982 72.2638 44.8593 68.3151C47.5204 64.3665 51.3027 61.2889 55.7279 59.4715C60.1532 57.6541 65.0226 57.1786 69.7204 58.1051C74.4182 59.0316 78.7334 61.3185 82.1203 64.6765C85.5073 68.0346 87.8138 72.313 88.7483 76.9708C89.6827 81.6286 89.2031 86.4565 87.3701 90.844C85.5371 95.2315 82.4331 98.9816 78.4504 101.62C74.4678 104.258 69.7855 105.667 64.9957 105.667C58.5727 105.667 52.4128 103.137 47.8711 98.6339C43.3293 94.1309 40.7778 88.0235 40.7778 81.6552V81.6552Z" fill="#939BB4" />
</svg>